<?xml version="1.0" encoding="UTF-8"?>
<svg width="166px" height="94px" viewBox="0 0 166 94" version="1.1" xmlns="http://www.w3.org/2000/svg" xmlns:xlink="http://www.w3.org/1999/xlink">
    <!-- Generator: Sketch 58 (84663) - https://sketch.com -->
    <title>logo</title>
    <desc>Created with Sketch.</desc>
    <g id="Page-1" stroke="none" stroke-width="1" fill="none" fill-rule="evenodd">
        <g id="logo" fill-rule="nonzero">
            <path d="M36.0063333,88.5733333 C36.0063333,89.32 35.7396667,89.7466667 35.2063333,90.0666667 C33.3396667,91.24 28.433,93.8 21.4996667,93.8 C8.80566667,93.8 0.379,85.48 0.379,74.3866667 C0.379,63.5593333 9.499,55.026 20.5923333,55.026 C26.619,55.026 30.833,56.5726667 32.6996667,57.4793333 C33.4463333,57.7993333 33.7663333,58.1726667 33.4463333,58.9726667 L31.953,62.6526667 C31.633,63.4526667 31.2063333,63.5593333 30.5663333,63.2926667 C28.913,62.6 25.3396667,61.266 21.713,61.266 C12.9123333,61.266 7.52566667,66.8126667 7.52566667,74.4933333 C7.52566667,82.0133333 13.2856667,87.56 21.073,87.56 C23.8463333,87.56 26.353,87.08 28.273,86.4933333 C28.753,86.3333333 29.6063333,85.8533333 29.6063333,84.7333333 L29.6063333,80.6266667 C29.6063333,79.88 29.393,79.4 28.273,79.4 L20.2723333,79.4 C19.7396667,79.4 19.1523333,79.1866667 19.1523333,78.44 L19.1523333,74.3866667 C19.1523333,73.9066667 19.5256667,73.48 20.2723333,73.48 L35.153,73.48 C35.7396667,73.48 36.0063333,73.8 36.0063333,74.226 L36.0063333,88.5733333 Z" id="Fill-113" fill="#EE9E47"></path>
            <path d="M65.8191333,87.9333333 C73.0724667,87.9333333 78.7258,82.12 78.7258,74.4933333 C78.7258,66.8126667 73.3391333,60.9993333 65.8191333,60.9993333 C58.4051333,60.9993333 52.9118,66.8126667 52.9118,74.4933333 C52.9118,82.0133333 58.5658,87.9333333 65.8191333,87.9333333 M65.7658,55.026 C77.3924667,55.026 85.8191333,63.186 85.8191333,74.3866667 C85.8191333,85.4266667 77.2324667,93.7466667 65.7658,93.7466667 C54.2984667,93.7466667 45.7651333,85.48 45.7651333,74.3866667 C45.7651333,63.5593333 54.5124667,55.026 65.7658,55.026" id="Fill-115" fill="#EE9E47"></path>
            <path d="M98.5646,93.1602667 C98.0312667,93.1602667 97.6046,92.8402667 97.6046,92.3069333 L97.6046,56.7862667 C97.6046,56.0396 97.8179333,55.6662667 98.7779333,55.6662667 L103.097933,55.6662667 C103.737933,55.6662667 104.217933,55.9329333 104.217933,56.6796 L104.217933,85.6936 C104.217933,86.6002667 104.591933,87.0802667 105.711267,87.0802667 L120.911933,87.0802667 C121.551933,87.0802667 121.9786,87.4536 121.9786,88.2536 L121.9786,92.1469333 C121.9786,92.7336 121.445267,93.1602667 120.751933,93.1602667 L98.5646,93.1602667 Z" id="Fill-117" fill="#EE9E47"></path>
            <path d="M139.098133,61.7462 C138.351467,61.7462 138.0848,62.2262 138.0848,62.7062 L138.0848,85.7468667 C138.0848,86.6002 138.458133,87.0802 139.151467,87.0802 L145.6048,87.0802 C152.858133,87.0802 158.512133,81.8002 158.512133,74.4935333 C158.512133,67.1328667 153.125467,61.7462 145.6048,61.7462 L139.098133,61.7462 Z M131.417467,57.2128667 C131.417467,56.0928667 131.737467,55.6662 132.9648,55.6662 L145.551467,55.6662 C157.1788,55.6662 165.605467,63.5062 165.605467,74.3862 C165.605467,85.1068667 157.018133,93.1602 145.551467,93.1602 L132.858133,93.1602 C131.684133,93.1602 131.417467,92.6802 131.417467,91.6668667 L131.417467,57.2128667 Z" id="Fill-119" fill="#EE9E47"></path>
            <path d="M15.9522667,39.1335333 C12.0589333,39.1335333 8.11226667,37.9602 4.91226667,36.2535333 C4.4856,36.0402 3.63226667,35.7202 4.11226667,34.4402 L5.55226667,30.6535333 C5.87226667,29.8002 6.77893333,30.1202 7.2056,30.3868667 C10.0322667,31.9868667 13.2322667,32.9468667 16.1656,32.9468667 C20.5922667,32.9468667 22.6189333,30.7602 22.6189333,28.3602 C22.6189333,25.8535333 21.2322667,24.3595333 14.4589333,21.8535333 C7.15226667,19.1868667 4.6456,15.7195333 4.6456,11.2395333 C4.6456,5.5862 9.23226667,0.359533333 17.2322667,0.359533333 C20.6462667,0.359533333 24.0062667,1.21286667 26.4062667,2.33286667 C26.8329333,2.5462 27.5256,3.07953333 27.2056,3.93286667 L25.8722667,7.6662 C25.5522667,8.6262 24.7529333,8.41286667 24.3796,8.25286667 C22.2456,7.23953333 19.5256,6.27953333 17.0722667,6.27953333 C13.1256,6.27953333 11.3122667,8.4662 11.3122667,11.0795333 C11.3122667,13.4795333 13.3389333,14.9728667 18.6189333,16.8928667 C26.9929333,20.1468667 29.3929333,23.4528667 29.3929333,28.3602 C29.3929333,35.0268667 24.3262667,39.1335333 15.9522667,39.1335333" id="Fill-121" fill="#000105"></path>
            <path d="M51.9252,8.573 C51.9252,7.39966667 51.5518667,7.07966667 50.6452,7.07966667 L40.6185333,7.07966667 C39.8718667,7.07966667 39.3918667,6.86633333 39.3918667,6.013 L39.3918667,2.013 C39.3918667,1.26633333 39.8718667,0.999666667 40.5118667,0.999666667 L69.7925333,0.999666667 C70.4325333,0.999666667 70.9125333,1.26633333 70.9125333,2.013 L70.9125333,6.06633333 C70.9125333,6.813 70.4325333,7.07966667 69.7925333,7.07966667 L59.8718667,7.07966667 C58.9658667,7.07966667 58.5918667,7.39966667 58.5918667,8.573 L58.5918667,37.6403333 C58.5918667,38.1736667 58.1652,38.4936667 57.6325333,38.4936667 L53.1518667,38.4936667 C52.4585333,38.4936667 51.9252,38.067 51.9252,37.4803333 L51.9252,8.573 Z" id="Fill-123" fill="#000105"></path>
            <path d="M91.311,23.1332 C91.311,24.0932 92.2176667,24.3065333 92.8043333,24.3065333 C97.0176667,24.2532 105.177667,24.2532 107.844333,24.2532 C108.858333,24.2532 109.231,23.9865333 109.231,22.7598667 L109.231,17.1598667 C109.231,9.15986667 105.497667,6.4392 100.271,6.4392 C95.0443333,6.4392 91.311,9.5332 91.311,17.1065333 L91.311,23.1332 Z M92.6443333,29.5332 C91.6843333,29.5332 91.311,29.9598667 91.311,30.7065333 L91.311,37.4805333 C91.311,38.0665333 90.7776667,38.4938667 90.0843333,38.4938667 L85.6043333,38.4938667 C85.071,38.4938667 84.6443333,38.1738667 84.6443333,37.6405333 L84.6443333,17.1065333 C84.6443333,5.58586667 90.4043333,0.3592 100.164333,0.3592 C109.924333,0.3592 115.898333,5.58586667 115.898333,17.1065333 L115.898333,37.4805333 C115.898333,38.0665333 115.365,38.4938667 114.671667,38.4938667 L110.191667,38.4938667 C109.658333,38.4938667 109.231,38.1738667 109.231,37.6405333 L109.231,30.7598667 C109.231,29.9598667 108.751667,29.5332 107.897667,29.5332 L92.6443333,29.5332 Z" id="Fill-125" fill="#000105"></path>
            <path d="M162.298,9.4262 C162.298,19.0795333 158.138,24.3068667 151.044667,25.7462 C150.671333,25.8002 149.871333,26.1202 149.871333,27.1335333 L149.871333,37.4802 C149.871333,38.2268667 149.391333,38.4935333 148.751333,38.4935333 L144.484,38.4935333 C143.524,38.4935333 143.311333,38.1202 143.311333,37.3735333 L143.311333,27.1335333 C143.311333,26.1202 142.510667,25.8535333 142.084,25.7462 C135.044,24.3068667 131.044,19.0795333 131.044,9.4262 L131.044,2.01286667 C131.044,1.2662 131.524,0.999533333 132.164,0.999533333 L136.537333,0.999533333 C137.497333,0.999533333 137.710667,1.37286667 137.710667,2.11953333 L137.710667,9.4262 C137.710667,16.9995333 141.444,20.0928667 146.671333,20.0928667 C151.898,20.0928667 155.631333,17.3728667 155.631333,9.37286667 L155.631333,2.01286667 C155.631333,1.2662 156.111333,0.999533333 156.751333,0.999533333 L161.124667,0.999533333 C162.084667,0.999533333 162.298,1.37286667 162.298,2.11953333 L162.298,9.4262 Z" id="Fill-127" fill="#000105"></path>
        </g>
    </g>
</svg>